<svg width="43" height="40" viewBox="0 0 43 40" fill="none" xmlns="http://www.w3.org/2000/svg"><path d="M21.136 1.424a.403.403 0 0 1 .728 0l5.363 11.203c.269.56.802.947 1.418 1.03l12.312 1.639c.335.045.47.458.224.692l-8.996 8.563a1.84 1.84 0 0 0-.542 1.666l2.245 12.216a.403.403 0 0 1-.588.427l-10.924-5.91a1.84 1.84 0 0 0-1.752 0L9.7 38.86a.403.403 0 0 1-.589-.427l2.246-12.216a1.84 1.84 0 0 0-.541-1.666l-8.997-8.563a.403.403 0 0 1 .224-.692l12.312-1.64a1.841 1.841 0 0 0 1.418-1.03l5.363-11.202Z" fill="#FFD66C" stroke="#EFB153" stroke-width="1.438"/></svg>